<svg width="200" height="200" xmlns="http://www.w3.org/2000/svg">
  <defs>
    <pattern id="farmPattern" x="0" y="0" width="200" height="200" patternUnits="userSpaceOnUse">
      <!-- Diagonal arrangement of farm icons -->
      
      <!-- Row 1 - Top left to bottom right diagonal -->
      <g transform="translate(20, 20)">
        <path d="M8,0 C12,4 16,8 12,12 C8,16 4,12 0,8 C4,4 8,0 8,0 Z" fill="none" stroke="#1A7F5A" stroke-width="1.2" opacity="0.15"/>
        <path d="M8,0 L8,12" fill="none" stroke="#1A7F5A" stroke-width="1.2" opacity="0.15"/>
      </g>
      
      <g transform="translate(80, 40)">
        <circle cx="8" cy="8" r="6" fill="none" stroke="#1A7F5A" stroke-width="1.2" opacity="0.15"/>
        <path d="M8,2 L6,0 M8,2 L10,0" fill="none" stroke="#1A7F5A" stroke-width="1.2" opacity="0.15"/>
      </g>
      
      <g transform="translate(140, 60)">
        <path d="M8,0 L12,15 L4,15 Z" fill="none" stroke="#1A7F5A" stroke-width="1.2" opacity="0.15"/>
        <path d="M6,0 L8,2 M10,0 L8,2" fill="none" stroke="#1A7F5A" stroke-width="1.2" opacity="0.15"/>
      </g>
      
      <!-- Row 2 - Continuing diagonal -->
      <g transform="translate(40, 100)">
        <path d="M0,20 Q5,10 10,20 Q15,10 20,20" fill="none" stroke="#1A7F5A" stroke-width="1.2" opacity="0.15"/>
        <path d="M2,20 Q7,12 12,20 Q17,12 22,20" fill="none" stroke="#1A7F5A" stroke-width="1.2" opacity="0.15"/>
      </g>
      
      <g transform="translate(100, 120)">
        <circle cx="8" cy="8" r="4" fill="none" stroke="#1A7F5A" stroke-width="1.2" opacity="0.15"/>
        <path d="M8,0 L8,2 M8,14 L8,16 M0,8 L2,8 M14,8 L16,8" fill="none" stroke="#1A7F5A" stroke-width="1.2" opacity="0.15"/>
        <path d="M2,2 L3,3 M13,13 L14,14 M2,14 L3,13 M13,3 L14,2" fill="none" stroke="#1A7F5A" stroke-width="1.2" opacity="0.15"/>
      </g>
      
      <g transform="translate(160, 140)">
        <rect x="7" y="12" width="2" height="8" fill="none" stroke="#1A7F5A" stroke-width="1.2" opacity="0.15"/>
        <circle cx="8" cy="10" r="6" fill="none" stroke="#1A7F5A" stroke-width="1.2" opacity="0.15"/>
      </g>
      
      <!-- Row 3 - Bottom diagonal -->
      <g transform="translate(60, 160)">
        <path d="M8,15 C8,15 0,8 0,4 C0,2 2,0 4,0 C6,0 8,2 8,4 C8,2 10,0 12,0 C14,0 16,2 16,4 C16,8 8,15 8,15 Z" fill="none" stroke="#1A7F5A" stroke-width="1.2" opacity="0.15"/>
      </g>
      
      <g transform="translate(120, 180)">
        <path d="M8,0 C12,4 12,8 8,12 C4,8 4,4 8,0 Z" fill="none" stroke="#1A7F5A" stroke-width="1.2" opacity="0.15"/>
      </g>
      
      <!-- Additional diagonal elements for better coverage -->
      <g transform="translate(0, 80)">
        <ellipse cx="8" cy="8" rx="4" ry="6" fill="none" stroke="#1A7F5A" stroke-width="1.2" opacity="0.15"/>
        <path d="M8,2 L8,14" fill="none" stroke="#1A7F5A" stroke-width="1.2" opacity="0.15"/>
      </g>
      
      <g transform="translate(60, 100)">
        <path d="M2,8 Q2,4 6,4 L10,4 Q14,4 14,8 L14,12 Q14,16 10,16 L6,16 Q2,16 2,12 Z" fill="none" stroke="#1A7F5A" stroke-width="1.2" opacity="0.15"/>
        <path d="M0,6 L4,2 L8,6" fill="none" stroke="#1A7F5A" stroke-width="1.2" opacity="0.15"/>
      </g>
      
      <g transform="translate(120, 20)">
        <circle cx="8" cy="8" r="2" fill="none" stroke="#1A7F5A" stroke-width="1.2" opacity="0.15"/>
        <path d="M8,0 L8,4 M8,12 L8,16 M0,8 L4,8 M12,8 L16,8" fill="none" stroke="#1A7F5A" stroke-width="1.2" opacity="0.15"/>
        <path d="M2,2 L4,4 M12,12 L14,14 M2,14 L4,12 M12,4 L14,2" fill="none" stroke="#1A7F5A" stroke-width="1.2" opacity="0.15"/>
      </g>
      
      <g transform="translate(180, 40)">
        <rect x="0" y="0" width="12" height="12" fill="none" stroke="#1A7F5A" stroke-width="1.2" opacity="0.15"/>
        <path d="M0,4 L12,4" fill="none" stroke="#1A7F5A" stroke-width="1.2" opacity="0.15"/>
        <path d="M6,0 L6,12" fill="none" stroke="#1A7F5A" stroke-width="1.2" opacity="0.15"/>
      </g>
    </pattern>
  </defs>
  
  <!-- Background rectangle with pattern -->
  <rect width="200" height="200" fill="url(#farmPattern)"/>
</svg>