<svg width="200" height="200" xmlns="http://www.w3.org/2000/svg">
  <defs>
    <pattern id="farmPattern" x="0" y="0" width="200" height="200" patternUnits="userSpaceOnUse">
      <!-- Farm tractor -->
      <g transform="translate(20, 30)">
        <rect x="0" y="8" width="25" height="8" fill="none" stroke="#1A7F5A" stroke-width="2"/>
        <circle cx="6" cy="16" r="4" fill="none" stroke="#1A7F5A" stroke-width="2"/>
        <circle cx="19" cy="16" r="4" fill="none" stroke="#1A7F5A" stroke-width="2"/>
        <rect x="20" y="4" width="8" height="12" fill="none" stroke="#1A7F5A" stroke-width="2"/>
      </g>
      
      <!-- Wheat/grain -->
      <g transform="translate(60, 20)">
        <path d="M0,20 Q5,10 10,20 Q15,10 20,20" fill="none" stroke="#1A7F5A" stroke-width="2"/>
        <path d="M2,20 Q7,12 12,20 Q17,12 22,20" fill="none" stroke="#1A7F5A" stroke-width="2"/>
        <path d="M4,20 Q9,14 14,20 Q19,14 24,20" fill="none" stroke="#1A7F5A" stroke-width="2"/>
      </g>
      
      <!-- Apple -->
      <g transform="translate(100, 25)">
        <circle cx="8" cy="8" r="6" fill="none" stroke="#1A7F5A" stroke-width="2"/>
        <path d="M8,2 L6,0 M8,2 L10,0" fill="none" stroke="#1A7F5A" stroke-width="2"/>
      </g>
      
      <!-- Carrot -->
      <g transform="translate(140, 20)">
        <path d="M8,0 L12,15 L4,15 Z" fill="none" stroke="#1A7F5A" stroke-width="2"/>
        <path d="M6,0 L8,2 M10,0 L8,2" fill="none" stroke="#1A7F5A" stroke-width="2"/>
      </g>
      
      <!-- Barn -->
      <g transform="translate(20, 80)">
        <path d="M0,20 L10,0 L20,20 Z" fill="none" stroke="#1A7F5A" stroke-width="2"/>
        <rect x="2" y="20" width="16" height="12" fill="none" stroke="#1A7F5A" stroke-width="2"/>
        <rect x="6" y="24" width="4" height="8" fill="none" stroke="#1A7F5A" stroke-width="2"/>
      </g>
      
      <!-- Cow -->
      <g transform="translate(60, 85)">
        <ellipse cx="8" cy="12" rx="8" ry="6" fill="none" stroke="#1A7F5A" stroke-width="2"/>
        <circle cx="5" cy="8" r="1" fill="none" stroke="#1A7F5A" stroke-width="1"/>
        <circle cx="11" cy="8" r="1" fill="none" stroke="#1A7F5A" stroke-width="1"/>
        <path d="M0,12 Q4,8 8,12 Q12,8 16,12" fill="none" stroke="#1A7F5A" stroke-width="2"/>
      </g>
      
      <!-- Sun -->
      <g transform="translate(100, 80)">
        <circle cx="8" cy="8" r="4" fill="none" stroke="#1A7F5A" stroke-width="2"/>
        <path d="M8,0 L8,2 M8,14 L8,16 M0,8 L2,8 M14,8 L16,8" fill="none" stroke="#1A7F5A" stroke-width="2"/>
        <path d="M2,2 L3,3 M13,13 L14,14 M2,14 L3,13 M13,3 L14,2" fill="none" stroke="#1A7F5A" stroke-width="2"/>
      </g>
      
      <!-- Tree -->
      <g transform="translate(140, 80)">
        <rect x="7" y="12" width="2" height="8" fill="none" stroke="#1A7F5A" stroke-width="2"/>
        <circle cx="8" cy="10" r="6" fill="none" stroke="#1A7F5A" stroke-width="2"/>
      </g>
      
      <!-- Shopping cart -->
      <g transform="translate(20, 140)">
        <rect x="2" y="8" width="12" height="8" fill="none" stroke="#1A7F5A" stroke-width="2"/>
        <circle cx="6" cy="18" r="2" fill="none" stroke="#1A7F5A" stroke-width="2"/>
        <circle cx="14" cy="18" r="2" fill="none" stroke="#1A7F5A" stroke-width="2"/>
        <path d="M0,8 L4,4" fill="none" stroke="#1A7F5A" stroke-width="2"/>
      </g>
      
      <!-- Message bubble -->
      <g transform="translate(60, 140)">
        <ellipse cx="8" cy="8" rx="6" ry="5" fill="none" stroke="#1A7F5A" stroke-width="2"/>
        <path d="M2,12 L6,8 L10,8" fill="none" stroke="#1A7F5A" stroke-width="2"/>
      </g>
      
      <!-- Star rating -->
      <g transform="translate(100, 140)">
        <path d="M8,0 L10,6 L16,6 L11,10 L13,16 L8,12 L3,16 L5,10 L0,6 L6,6 Z" fill="none" stroke="#1A7F5A" stroke-width="2"/>
      </g>
      
      <!-- Location pin -->
      <g transform="translate(140, 140)">
        <path d="M8,0 C4,0 1,3 1,7 C1,11 8,20 8,20 S15,11 15,7 C15,3 12,0 8,0 Z" fill="none" stroke="#1A7F5A" stroke-width="2"/>
        <circle cx="8" cy="7" r="2" fill="none" stroke="#1A7F5A" stroke-width="2"/>
      </g>
      
      <!-- Package/box -->
      <g transform="translate(20, 20)">
        <rect x="0" y="0" width="12" height="12" fill="none" stroke="#1A7F5A" stroke-width="2"/>
        <path d="M0,4 L12,4" fill="none" stroke="#1A7F5A" stroke-width="2"/>
        <path d="M6,0 L6,12" fill="none" stroke="#1A7F5A" stroke-width="2"/>
      </g>
      
      <!-- Heart -->
      <g transform="translate(60, 20)">
        <path d="M8,15 C8,15 0,8 0,4 C0,2 2,0 4,0 C6,0 8,2 8,4 C8,2 10,0 12,0 C14,0 16,2 16,4 C16,8 8,15 8,15 Z" fill="none" stroke="#1A7F5A" stroke-width="2"/>
      </g>
      
      <!-- Leaf -->
      <g transform="translate(100, 20)">
        <path d="M8,0 C12,4 16,8 12,12 C8,16 4,12 0,8 C4,4 8,0 8,0 Z" fill="none" stroke="#1A7F5A" stroke-width="2"/>
        <path d="M8,0 L8,12" fill="none" stroke="#1A7F5A" stroke-width="2"/>
      </g>
      
      <!-- Water drop -->
      <g transform="translate(140, 20)">
        <path d="M8,0 C12,4 12,8 8,12 C4,8 4,4 8,0 Z" fill="none" stroke="#1A7F5A" stroke-width="2"/>
      </g>
      
      <!-- Farm house -->
      <g transform="translate(20, 80)">
        <rect x="0" y="8" width="16" height="12" fill="none" stroke="#1A7F5A" stroke-width="2"/>
        <path d="M0,8 L8,0 L16,8" fill="none" stroke="#1A7F5A" stroke-width="2"/>
        <rect x="6" y="12" width="4" height="8" fill="none" stroke="#1A7F5A" stroke-width="2"/>
      </g>
      
      <!-- Chicken -->
      <g transform="translate(60, 80)">
        <circle cx="8" cy="8" r="4" fill="none" stroke="#1A7F5A" stroke-width="2"/>
        <path d="M4,8 L2,6 M12,8 L14,6" fill="none" stroke="#1A7F5A" stroke-width="2"/>
        <path d="M6,12 L4,14 M10,12 L12,14" fill="none" stroke="#1A7F5A" stroke-width="2"/>
      </g>
      
      <!-- Corn -->
      <g transform="translate(100, 80)">
        <rect x="7" y="0" width="2" height="16" fill="none" stroke="#1A7F5A" stroke-width="2"/>
        <path d="M6,4 L10,4 M5,6 L11,6 M6,8 L10,8 M5,10 L11,10 M6,12 L10,12" fill="none" stroke="#1A7F5A" stroke-width="2"/>
      </g>
      
      <!-- Bee -->
      <g transform="translate(140, 80)">
        <ellipse cx="8" cy="8" rx="6" ry="4" fill="none" stroke="#1A7F5A" stroke-width="2"/>
        <path d="M2,8 L4,6 M14,8 L12,6 M2,8 L4,10 M14,8 L12,10" fill="none" stroke="#1A7F5A" stroke-width="2"/>
        <path d="M6,4 L8,2 L10,4" fill="none" stroke="#1A7F5A" stroke-width="2"/>
      </g>
      
      <!-- Basket -->
      <g transform="translate(20, 140)">
        <path d="M2,8 Q2,4 6,4 L10,4 Q14,4 14,8 L14,12 Q14,16 10,16 L6,16 Q2,16 2,12 Z" fill="none" stroke="#1A7F5A" stroke-width="2"/>
        <path d="M0,6 L4,2 L8,6" fill="none" stroke="#1A7F5A" stroke-width="2"/>
      </g>
      
      <!-- Flower -->
      <g transform="translate(60, 140)">
        <circle cx="8" cy="8" r="2" fill="none" stroke="#1A7F5A" stroke-width="2"/>
        <path d="M8,0 L8,4 M8,12 L8,16 M0,8 L4,8 M12,8 L16,8" fill="none" stroke="#1A7F5A" stroke-width="2"/>
        <path d="M2,2 L4,4 M12,12 L14,14 M2,14 L4,12 M12,4 L14,2" fill="none" stroke="#1A7F5A" stroke-width="2"/>
      </g>
      
      <!-- Seed -->
      <g transform="translate(100, 140)">
        <ellipse cx="8" cy="8" rx="4" ry="6" fill="none" stroke="#1A7F5A" stroke-width="2"/>
        <path d="M8,2 L8,14" fill="none" stroke="#1A7F5A" stroke-width="2"/>
      </g>
      
      <!-- Compass -->
      <g transform="translate(140, 140)">
        <circle cx="8" cy="8" r="6" fill="none" stroke="#1A7F5A" stroke-width="2"/>
        <path d="M8,2 L8,6 M8,10 L8,14 M2,8 L6,8 M10,8 L14,8" fill="none" stroke="#1A7F5A" stroke-width="2"/>
        <path d="M4,4 L6,6 M10,10 L12,12 M4,12 L6,10 M10,6 L12,4" fill="none" stroke="#1A7F5A" stroke-width="2"/>
      </g>
    </pattern>
  </defs>
  
  <!-- Background rectangle with pattern -->
  <rect width="200" height="200" fill="url(#farmPattern)" opacity="0.05"/>
</svg>
